<mxfile host="app.diagrams.net" modified="2024-05-04T17:42:41.049Z" agent="Mozilla/5.0 (Windows NT 10.0; Win64; x64) AppleWebKit/537.36 (KHTML, like Gecko) Chrome/123.0.0.0 Safari/537.36" etag="KTl-o95ppuHJhRdIRROw" version="24.3.1" type="device">
  <diagram name="Page-1" id="GigK-Gdr3kwYmBsGaX3G">
    <mxGraphModel dx="1628" dy="877" grid="1" gridSize="10" guides="1" tooltips="1" connect="1" arrows="1" fold="1" page="1" pageScale="1" pageWidth="850" pageHeight="1100" math="0" shadow="0">
      <root>
        <mxCell id="0" />
        <mxCell id="1" parent="0" />
        <mxCell id="NZbn-G5UG1afDBGGb_qp-4" value="" style="edgeStyle=orthogonalEdgeStyle;rounded=0;orthogonalLoop=1;jettySize=auto;html=1;" edge="1" parent="1" source="NZbn-G5UG1afDBGGb_qp-1" target="NZbn-G5UG1afDBGGb_qp-2">
          <mxGeometry relative="1" as="geometry" />
        </mxCell>
        <mxCell id="NZbn-G5UG1afDBGGb_qp-1" value="Prompt LLM to Generate N Sentences with a Cognitive Distortion in the text" style="rounded=1;whiteSpace=wrap;html=1;" vertex="1" parent="1">
          <mxGeometry x="310" y="200" width="120" height="100" as="geometry" />
        </mxCell>
        <mxCell id="NZbn-G5UG1afDBGGb_qp-14" value="" style="edgeStyle=orthogonalEdgeStyle;rounded=0;orthogonalLoop=1;jettySize=auto;html=1;" edge="1" parent="1" source="NZbn-G5UG1afDBGGb_qp-2" target="NZbn-G5UG1afDBGGb_qp-13">
          <mxGeometry relative="1" as="geometry" />
        </mxCell>
        <mxCell id="NZbn-G5UG1afDBGGb_qp-2" value="Add N sentences to Sentence Corpus" style="rounded=1;whiteSpace=wrap;html=1;" vertex="1" parent="1">
          <mxGeometry x="310" y="340" width="120" height="60" as="geometry" />
        </mxCell>
        <mxCell id="NZbn-G5UG1afDBGGb_qp-12" style="edgeStyle=orthogonalEdgeStyle;rounded=0;orthogonalLoop=1;jettySize=auto;html=1;entryX=0.5;entryY=0;entryDx=0;entryDy=0;" edge="1" parent="1" source="NZbn-G5UG1afDBGGb_qp-5" target="NZbn-G5UG1afDBGGb_qp-1">
          <mxGeometry relative="1" as="geometry" />
        </mxCell>
        <mxCell id="NZbn-G5UG1afDBGGb_qp-5" value="Add Sentences to input Prompt to prevent repetition" style="whiteSpace=wrap;html=1;rounded=1;" vertex="1" parent="1">
          <mxGeometry x="470" y="200" width="120" height="70" as="geometry" />
        </mxCell>
        <mxCell id="NZbn-G5UG1afDBGGb_qp-15" style="edgeStyle=orthogonalEdgeStyle;rounded=0;orthogonalLoop=1;jettySize=auto;html=1;entryX=0.5;entryY=1;entryDx=0;entryDy=0;" edge="1" parent="1" source="NZbn-G5UG1afDBGGb_qp-13" target="NZbn-G5UG1afDBGGb_qp-5">
          <mxGeometry relative="1" as="geometry" />
        </mxCell>
        <mxCell id="NZbn-G5UG1afDBGGb_qp-18" value="" style="edgeStyle=orthogonalEdgeStyle;rounded=0;orthogonalLoop=1;jettySize=auto;html=1;" edge="1" parent="1" source="NZbn-G5UG1afDBGGb_qp-13" target="NZbn-G5UG1afDBGGb_qp-17">
          <mxGeometry relative="1" as="geometry" />
        </mxCell>
        <mxCell id="NZbn-G5UG1afDBGGb_qp-13" value="If Sentence Corpus &amp;gt; N*x" style="rhombus;whiteSpace=wrap;html=1;rounded=1;" vertex="1" parent="1">
          <mxGeometry x="455" y="305" width="150" height="130" as="geometry" />
        </mxCell>
        <mxCell id="NZbn-G5UG1afDBGGb_qp-16" value="No" style="text;html=1;align=center;verticalAlign=middle;resizable=0;points=[];autosize=1;strokeColor=none;fillColor=none;" vertex="1" parent="1">
          <mxGeometry x="560" y="318" width="40" height="30" as="geometry" />
        </mxCell>
        <mxCell id="NZbn-G5UG1afDBGGb_qp-32" value="" style="edgeStyle=orthogonalEdgeStyle;rounded=0;orthogonalLoop=1;jettySize=auto;html=1;" edge="1" parent="1" source="NZbn-G5UG1afDBGGb_qp-17" target="NZbn-G5UG1afDBGGb_qp-31">
          <mxGeometry relative="1" as="geometry" />
        </mxCell>
        <mxCell id="NZbn-G5UG1afDBGGb_qp-17" value="Clean Sentence Corpus" style="whiteSpace=wrap;html=1;rounded=1;" vertex="1" parent="1">
          <mxGeometry x="630" y="340" width="120" height="60" as="geometry" />
        </mxCell>
        <mxCell id="NZbn-G5UG1afDBGGb_qp-20" value="Yes" style="text;html=1;align=center;verticalAlign=middle;resizable=0;points=[];autosize=1;strokeColor=none;fillColor=none;" vertex="1" parent="1">
          <mxGeometry x="530" y="435" width="40" height="30" as="geometry" />
        </mxCell>
        <mxCell id="NZbn-G5UG1afDBGGb_qp-21" value="Start" style="rounded=1;whiteSpace=wrap;html=1;" vertex="1" parent="1">
          <mxGeometry x="190" y="210" width="90" height="60" as="geometry" />
        </mxCell>
        <mxCell id="NZbn-G5UG1afDBGGb_qp-22" style="edgeStyle=orthogonalEdgeStyle;rounded=0;orthogonalLoop=1;jettySize=auto;html=1;entryX=0.023;entryY=0.433;entryDx=0;entryDy=0;entryPerimeter=0;" edge="1" parent="1" source="NZbn-G5UG1afDBGGb_qp-21" target="NZbn-G5UG1afDBGGb_qp-1">
          <mxGeometry relative="1" as="geometry" />
        </mxCell>
        <mxCell id="NZbn-G5UG1afDBGGb_qp-27" value="" style="edgeStyle=orthogonalEdgeStyle;rounded=0;orthogonalLoop=1;jettySize=auto;html=1;" edge="1" parent="1" source="NZbn-G5UG1afDBGGb_qp-24" target="NZbn-G5UG1afDBGGb_qp-26">
          <mxGeometry relative="1" as="geometry" />
        </mxCell>
        <mxCell id="NZbn-G5UG1afDBGGb_qp-24" value="Use BERTopic to cluster embeddings" style="whiteSpace=wrap;html=1;rounded=1;" vertex="1" parent="1">
          <mxGeometry x="630" y="500" width="120" height="60" as="geometry" />
        </mxCell>
        <mxCell id="NZbn-G5UG1afDBGGb_qp-35" value="" style="edgeStyle=orthogonalEdgeStyle;rounded=0;orthogonalLoop=1;jettySize=auto;html=1;" edge="1" parent="1" source="NZbn-G5UG1afDBGGb_qp-26" target="NZbn-G5UG1afDBGGb_qp-34">
          <mxGeometry relative="1" as="geometry" />
        </mxCell>
        <mxCell id="NZbn-G5UG1afDBGGb_qp-26" value="Use Cosine Similarity to remove Similar sentences from clusters." style="whiteSpace=wrap;html=1;rounded=1;" vertex="1" parent="1">
          <mxGeometry x="620" y="580" width="140" height="60" as="geometry" />
        </mxCell>
        <mxCell id="NZbn-G5UG1afDBGGb_qp-33" value="" style="edgeStyle=orthogonalEdgeStyle;rounded=0;orthogonalLoop=1;jettySize=auto;html=1;" edge="1" parent="1" source="NZbn-G5UG1afDBGGb_qp-31" target="NZbn-G5UG1afDBGGb_qp-24">
          <mxGeometry relative="1" as="geometry" />
        </mxCell>
        <mxCell id="NZbn-G5UG1afDBGGb_qp-31" value="Create Embeddings of each Sentence using Sentence Transformers" style="rounded=1;whiteSpace=wrap;html=1;" vertex="1" parent="1">
          <mxGeometry x="630" y="420" width="120" height="60" as="geometry" />
        </mxCell>
        <mxCell id="NZbn-G5UG1afDBGGb_qp-34" value="Verify final dataset of Sentence Corpus with human verification" style="whiteSpace=wrap;html=1;rounded=1;" vertex="1" parent="1">
          <mxGeometry x="630" y="670" width="120" height="60" as="geometry" />
        </mxCell>
      </root>
    </mxGraphModel>
  </diagram>
</mxfile>
